<svg data-v-fde0c5aa="" xmlns="http://www.w3.org/2000/svg" viewBox="0 0 300 300" class="iconAbove"><!----><defs data-v-fde0c5aa=""><!----></defs><rect data-v-fde0c5aa="" fill="#F5E9EB" x="0" y="0" width="300px" height="300px" class="logo-background-square"></rect><defs data-v-fde0c5aa=""><!----></defs><g data-v-fde0c5aa="" id="0248e1be-a384-4f66-91e0-1fd2a6767136" fill="#36131B" transform="matrix(4.173354530721231,0,0,4.173354530721231,17.12038513500109,166.95024225163382)"><path d="M0.69 14.35L8.51 14.35L8.51 11.66L7.15 11.66L7.15 13.48L3.50 13.48L3.50 9.72L5.84 9.72L5.84 10.70L6.82 10.70L6.82 7.87L5.84 7.87L5.84 8.85L3.50 8.85L3.50 5.45L7.01 5.45L7.01 7.07L8.37 7.07L8.37 4.58L0.69 4.58L0.69 5.36L1.72 5.36L1.72 13.57L0.69 13.57ZM9.73 14.35L13.34 14.35L13.34 13.57L12.38 13.57L12.38 3.57L9.73 4.09L9.73 4.73L10.70 4.91L10.70 13.57L9.73 13.57ZM16.20 5.75C16.84 5.75 17.22 5.35 17.22 4.79L17.22 4.72C17.22 4.16 16.84 3.75 16.20 3.75C15.55 3.75 15.18 4.16 15.18 4.72L15.18 4.79C15.18 5.35 15.55 5.75 16.20 5.75ZM14.39 14.35L18.00 14.35L18.00 13.57L17.04 13.57L17.04 6.90L14.39 7.42L14.39 8.06L15.36 8.25L15.36 13.57L14.39 13.57ZM21.39 14.46C22.20 14.46 23.00 14.32 23.32 14.17L23.32 13.51L21.55 13.51L21.55 7.92L23.32 7.92L23.32 7.07L21.55 7.07L21.55 5.12L20.68 5.12L20.22 6.36C20.03 6.83 19.87 7.07 19.14 7.07L18.90 7.07L18.90 7.92L19.87 7.92L19.87 13.03C19.87 14.03 20.29 14.46 21.39 14.46ZM27.75 14.52C29.46 14.52 30.42 13.48 30.77 12.53L30.13 12.15C29.79 12.85 29.16 13.37 28.07 13.37C26.85 13.37 26.05 12.56 26.05 11.16L26.05 10.71L30.93 10.71L30.93 10.30C30.93 8.27 29.68 6.90 27.65 6.90C25.65 6.90 24.23 8.40 24.23 10.71C24.23 12.95 25.51 14.52 27.75 14.52ZM26.05 9.74C26.05 8.44 26.63 7.73 27.66 7.73C28.69 7.73 29.19 8.47 29.19 9.77L29.19 9.94L26.05 9.94ZM31.70 14.35L34.68 14.35L34.68 13.57L33.47 13.57L34.24 11.26L37.81 11.26L38.61 13.57L37.41 13.57L37.41 14.35L41.17 14.35L41.17 13.57L40.45 13.57L37.28 4.58L35.59 4.58L32.42 13.57L31.70 13.57ZM36.01 5.95L36.08 5.95L37.58 10.44L34.50 10.44ZM44.93 14.52C46.12 14.52 46.82 13.85 47.05 13.20L47.12 13.20L47.12 14.52L49.73 14L49.73 13.36L48.76 13.17L48.76 6.90L46.12 7.42L46.12 8.06L47.08 8.25L47.08 12.17C47.08 13.02 46.30 13.41 45.56 13.41C44.55 13.41 44.11 12.87 44.11 11.70L44.11 6.90L41.48 7.42L41.48 8.06L42.43 8.25L42.43 11.79C42.43 13.61 43.12 14.52 44.93 14.52ZM53.12 14.46C53.93 14.46 54.73 14.32 55.05 14.17L55.05 13.51L53.27 13.51L53.27 7.92L55.05 7.92L55.05 7.07L53.27 7.07L53.27 5.12L52.40 5.12L51.94 6.36C51.76 6.83 51.59 7.07 50.86 7.07L50.62 7.07L50.62 7.92L51.59 7.92L51.59 13.03C51.59 14.03 52.01 14.46 53.12 14.46ZM59.47 13.65C58.32 13.65 57.79 12.88 57.79 11.73L57.79 9.69C57.79 8.54 58.32 7.77 59.47 7.77C60.62 7.77 61.15 8.54 61.15 9.69L61.15 11.73C61.15 12.88 60.62 13.65 59.47 13.65ZM59.47 14.52C61.57 14.52 62.99 13.06 62.99 10.71C62.99 8.36 61.57 6.90 59.47 6.90C57.37 6.90 55.96 8.36 55.96 10.71C55.96 13.06 57.37 14.52 59.47 14.52Z"></path></g><defs data-v-fde0c5aa=""><linearGradient data-v-fde0c5aa="" gradientTransform="rotate(25)" id="32d54a72-6fc0-4642-a1e6-b7aa10dc7aa1" x1="0%" y1="0%" x2="100%" y2="0%"><stop data-v-fde0c5aa="" offset="0%" stop-color="#70243D" stop-opacity="1"></stop><stop data-v-fde0c5aa="" offset="100%" stop-color="#C15767" stop-opacity="1"></stop></linearGradient></defs><g data-v-fde0c5aa="" id="8757d898-77b5-4cdd-bedd-880ff8142543" stroke="none" fill="url(#32d54a72-6fc0-4642-a1e6-b7aa10dc7aa1)" transform="matrix(2.308035348131637,0,0,2.308035348131637,34.59856059380144,-1.3254376761854019)"><path d="M77.836 64.906a6.662 6.662 0 0 0 6.664 6.659 6.663 6.663 0 0 0 6.663-6.659 6.664 6.664 0 0 0-13.327 0zM12.854 64.786a6.776 6.776 0 0 0 6.78 6.779 6.78 6.78 0 1 0-6.78-6.779z"></path><path d="M98.224 52.795s-8.016-5.602-16.607-6.826c-1.646-.238-19.311-10.955-25.433-11.661-6.123-.704-44.744-4.828-47.217-.117-2.472 4.711-6.71 8.126-6.595 11.539.117 3.414 0 8.6 0 8.6s-2.238.348-2.238 1.881c0 1.532-.471 4.473.353 5.177.825.712 8.714 3.89 8.714 3.89h2.057c-.046-4.371 2.746-8.777 8.383-8.777s8.429 4.406 8.383 8.777h48.024c-.097-4.407 2.692-8.891 8.378-8.891 5.714 0 8.5 4.526 8.376 8.955.909.245 4.315 1.07 5.536.053 1.417-1.174 2.946-6.593-.114-12.6z"></path></g><!----></svg>